<?xml version="1.0" encoding="utf-8"?>
<!-- Generator: Adobe Illustrator 15.0.2, SVG Export Plug-In  -->
<!DOCTYPE svg PUBLIC "-//W3C//DTD SVG 1.1//EN" "http://www.w3.org/Graphics/SVG/1.1/DTD/svg11.dtd" [
	<!ENTITY ns_flows "http://ns.adobe.com/Flows/1.0/">
]>
<svg version="1.1"
	 xmlns="http://www.w3.org/2000/svg" xmlns:xlink="http://www.w3.org/1999/xlink" xmlns:a="http://ns.adobe.com/AdobeSVGViewerExtensions/3.0/"
	 x="0px" y="0px" width="560px" height="300px" viewBox="0 0 560 300" enable-background="new 0 0 560 300" xml:space="preserve">
<defs>
</defs>
<rect y="37.961" fill="#00CAEA" width="560" height="262.039"/>
<rect fill="#00B7D3" width="560" height="262.039"/>
<path fill="#008C9F" d="M320.884,107.061c0-3.734-0.199-7.658-0.793-11.382l-11.182-2.354l-4.119-12.163l7.65-8.636
	c-1.761-3.343-3.919-6.477-6.284-9.425l-10.977,3.737l-9.62-8.442l2.354-11.382c-3.343-1.956-6.672-3.724-10.203-5.1l-7.462,8.632
	l-12.552-2.55l-3.73-10.99c-3.73,0-7.65,0.203-11.374,0.786l-2.354,11.188l-12.167,4.115l-8.64-7.646
	c-3.336,1.768-6.473,3.923-9.421,6.273l3.731,10.986l-8.434,9.617l-11.381-2.351c-1.963,3.336-3.724,6.665-5.1,10.2l8.631,7.654
	l-2.553,12.558l-10.997,3.532c0,3.727,0.199,7.653,0.793,11.381l11.381,2.357l4.118,12.164l-7.649,8.632
	c1.771,3.333,3.926,6.473,6.273,9.418l10.986-3.728l9.62,8.437l-2.553,11.381c3.336,1.963,6.672,3.728,10.203,5.101l7.654-8.632
	l12.559,2.55l3.73,10.989c3.724,0,7.65-0.198,11.374-0.782l2.365-11.188l12.163-4.119l8.632,7.654
	c3.326-1.768,6.474-3.927,9.422-6.284l-3.731-10.983l8.434-9.62l11.381,2.354c1.959-3.329,3.73-6.669,5.1-10.204l-8.632-7.65
	l2.554-12.555L320.884,107.061L320.884,107.061z M260.562,105.487c0,4.51-3.655,8.166-8.165,8.166s-8.165-3.656-8.165-8.166
	s3.655-8.164,8.165-8.164S260.562,100.978,260.562,105.487z"/>
<path fill="#008C9F" d="M126.852,118.461c0-2.44-0.13-5.006-0.519-7.44l-7.31-1.539l-2.692-7.95l5.001-5.646
	c-1.15-2.186-2.562-4.233-4.107-6.161l-7.176,2.443l-6.288-5.519l1.539-7.44c-2.186-1.278-4.361-2.435-6.67-3.333l-4.878,5.643
	l-8.205-1.667l-2.438-7.185c-2.438,0-5.001,0.133-7.435,0.514l-1.539,7.314l-7.954,2.689l-5.647-4.998
	c-2.181,1.155-4.231,2.564-6.158,4.101l2.439,7.182l-5.514,6.287l-7.439-1.537c-1.283,2.181-2.434,4.357-3.334,6.668l5.643,5.004
	l-1.669,8.208l-7.188,2.31c0,2.437,0.13,5.003,0.519,7.439l7.439,1.541l2.691,7.952l-5,5.643c1.157,2.178,2.566,4.23,4.101,6.156
	l7.182-2.438l6.289,5.516l-1.669,7.439c2.181,1.283,4.361,2.437,6.67,3.334l5.004-5.643l8.209,1.667l2.438,7.184
	c2.435,0,5.001-0.13,7.436-0.511l1.546-7.314l7.951-2.692l5.643,5.003c2.174-1.155,4.231-2.566,6.159-4.107l-2.439-7.18l5.513-6.289
	l7.439,1.539c1.28-2.176,2.438-4.359,3.334-6.67l-5.643-5.001l1.669-8.207L126.852,118.461L126.852,118.461z M87.42,117.433
	c0,2.948-2.39,5.338-5.338,5.338s-5.338-2.39-5.338-5.338c0-2.947,2.39-5.337,5.338-5.337S87.42,114.485,87.42,117.433z"/>
<path fill="#008C9F" d="M400.063,202.983l8.161-2.853c0.011-2.824-0.141-5.684-0.607-8.594l-8.536-1.538l-3.205-9.064l5.697-6.638
	c-1.404-2.409-2.966-4.85-4.898-7.029l-8.164,2.856l-7.353-6.315l1.541-8.543c-0.164-0.031-0.288-0.216-0.61-0.274
	c-2.279-1.242-4.706-2.516-7.197-3.467l-5.694,6.638l-9.503-1.712l-2.853-8.176c-2.825-0.004-5.674,0.137-8.598,0.617l-1.541,8.543
	l-9.062,3.188l-6.623-5.69c-2.42,1.4-4.86,2.948-7.04,4.895l2.855,8.165l-6.312,7.349l-8.546-1.545
	c-1.473,2.574-2.729,5.004-3.704,7.66l6.621,5.674l-1.713,9.511l-8.161,2.862c-0.011,2.824,0.127,5.684,0.607,8.598l8.546,1.537
	l3.182,9.062l-5.677,6.62c1.39,2.427,2.944,4.863,4.888,7.047l8.165-2.853l7.349,6.305l-1.538,8.546
	c0.151,0.031,0.295,0.227,0.614,0.282c2.279,1.235,4.713,2.516,7.193,3.459l5.684-6.631l9.528,1.713l2.839,8.172
	c2.824,0.011,5.684-0.147,8.601-0.614l1.541-8.543l9.061-3.191l6.621,5.684c2.413-1.396,4.863-2.948,7.043-4.891l-2.856-8.162
	l6.322-7.348l8.536,1.537c1.452-2.567,2.729-4.997,3.703-7.65l-6.624-5.694L400.063,202.983z M352.9,220.963
	c-11.671-2.105-19.57-13.311-17.467-24.981c2.104-11.664,13.32-19.563,25.114-17.442c11.669,2.105,19.554,13.328,17.447,24.982
	C375.899,215.192,364.572,223.066,352.9,220.963z"/>
<path fill="#008C9F" d="M372.386,113.612l4.411-1.783c-0.104-1.576-0.318-3.147-0.631-4.725l-4.722-0.628l-1.999-4.936l2.94-3.774
	c-0.837-1.365-1.779-2.628-2.837-3.779l-4.404,1.781l-4.2-3.255l0.634-4.718l-0.322-0.205c-1.353-0.637-2.723-1.274-4.093-1.688
	l-2.93,3.776l-5.248-0.734l-1.785-4.508c-1.578,0.102-3.149,0.203-4.733,0.52l-0.623,4.723l-5.034,2.103l-3.78-2.942
	c-1.363,0.84-2.629,1.787-3.774,2.835l1.776,4.404l-3.244,4.202l-4.726-0.632c-0.734,1.369-1.37,2.837-1.896,4.412l3.778,2.936
	l-0.728,5.249l-4.41,1.79c0.1,1.571,0.313,3.146,0.625,4.716l4.727,0.63l1.993,4.938l-2.935,3.772
	c0.833,1.364,1.779,2.63,2.831,3.789l4.41-1.789l4.196,3.255l-0.63,4.718l0.315,0.217c1.366,0.625,2.724,1.259,4.093,1.677
	l2.937-3.78l5.248,0.739l1.785,4.402c1.571-0.102,3.155-0.208,4.723-0.628l0.63-4.718l4.93-2.002l3.778,2.945
	c1.363-0.842,2.63-1.792,3.781-2.839l-1.785-4.406l3.259-4.2l4.72,0.634c0.733-1.366,1.37-2.837,1.885-4.413l-3.773-2.94
	L372.386,113.612z M348.352,118.879c-3.328,0-6.003-2.671-6.003-6.001c0-3.331,2.675-6.004,6.003-6.004c3.332,0,6,2.673,6,6.004
	C354.352,116.208,351.684,118.879,348.352,118.879z"/>
<rect x="90.572" y="111.58" fill="#E3E3E3" width="269.846" height="156.111"/>
<path d="M368.931,272.567H82.082V111.279c0-5.965,4.762-10.43,10.736-10.43H357.73c5.975,0,11.2,4.465,11.2,10.43V272.567z
	 M351.371,117.434H98.666v148.3h252.705V117.434z"/>
<path fill="#666666" d="M48.889,280.374c0,0.972,17.243,5.854,21.292,5.854h310.524c4.049,0,21.297-4.882,21.297-5.854H48.889z"/>
<path fill="#B0B0B0" d="M399.732,272.567H51.159c-1.673,0-2.249,0.999-2.249,2.666v5.141h353.191v-5.141
	C402.102,273.566,401.404,272.567,399.732,272.567z"/>
<path fill="#666666" d="M79.719,277.698c0,0.48-0.387,0.866-0.867,0.866c-0.484,0-0.871-0.386-0.871-0.866
	c0-0.485,0.387-0.876,0.871-0.876C79.332,276.822,79.719,277.213,79.719,277.698z"/>
<path fill="#666666" d="M69.975,277.698c0,0.48-0.391,0.866-0.871,0.866c-0.475,0-0.865-0.386-0.865-0.866
	c0-0.485,0.391-0.876,0.865-0.876C69.584,276.822,69.975,277.213,69.975,277.698z"/>
<path fill="#666666" d="M60.231,277.698c0,0.48-0.386,0.866-0.86,0.866c-0.491,0-0.875-0.386-0.875-0.866
	c0-0.485,0.384-0.876,0.875-0.876C59.846,276.822,60.231,277.213,60.231,277.698z"/>
<path fill="#808080" d="M227.919,109.59c0,1.373-1.108,2.481-2.477,2.481c-1.371,0-2.479-1.108-2.479-2.481
	c0-1.366,1.108-2.48,2.479-2.48C226.811,107.109,227.919,108.224,227.919,109.59z"/>
<g>
	<rect x="128.537" y="117.434" fill="#FFFFFF" width="193.916" height="148.3"/>
</g>
<rect x="128.537" y="117.434" fill="#00B7D3" width="193.916" height="27.773"/>
<path fill="#FFFFFF" d="M184.336,125.543c-5.322-3.764-15.379-4.268-22.281-1.085c-6.645,3.052-7.941,9.028-2.752,12.676
	c5.281,3.719,15.555,4.213,22.281,1.087C188.57,134.981,189.781,129.391,184.336,125.543z M167.111,137.454
	c-2.809-1.977-2.123-5.291,1.516-6.986c3.719-1.712,9.334-1.478,12.287,0.61c1.799,1.276,2.246,2.899,1.488,4.399
	c-0.592,0.442-1.266,0.843-2.033,1.219c0.797-1.123,0.58-2.432-0.807-3.418c-2.059-1.443-5.965-1.621-8.563-0.41
	c-2.588,1.196-3.074,3.452-1.063,4.865c0.357,0.255,0.797,0.457,1.268,0.636c-1.004-0.035-1.992-0.111-2.949-0.27
	C167.834,137.912,167.457,137.699,167.111,137.454z M179.404,137.076c-1.834,0.725-3.922,1.165-6.076,1.288
	c-0.545-0.153-1.039-0.366-1.439-0.65c-1.52-1.067-1.164-2.674,0.773-3.566c1.932-0.892,4.807-0.727,6.266,0.307
	C179.971,135.187,180.078,136.229,179.404,137.076z M183.072,134.919c1.297-1.999,0.908-4.196-1.383-5.817
	c-3.465-2.446-10.33-2.535-14.877-0.262c-3.99,1.984-5.123,5.603-2.92,7.979c-0.592-0.274-1.135-0.563-1.602-0.899
	c-3.965-2.79-2.979-7.763,2.211-10.167c5.365-2.486,13.623-2.128,17.869,0.877C185.789,129.035,185.914,132.354,183.072,134.919z"/>
<path fill="#FFFFFF" d="M214.768,140.077v-16.113h-5.762v-1.599h13.203v1.599h-5.758v16.113H214.768z"/>
<path fill="#FFFFFF" d="M234.916,140.077l-2.043-5.153h-8.369l-2.031,5.153h-1.703l6.957-17.712h1.973l6.959,17.712H234.916z
	 M228.752,124.287h-0.127l-3.576,9.092h7.279L228.752,124.287z"/>
<path fill="#FFFFFF" d="M238.809,122.365h5.488c2.424,0,4.131,0.202,5.111,0.613c0.984,0.412,1.621,1.188,1.889,2.322
	c0.285,1.132,0.412,3.099,0.412,5.919c0,2.814-0.127,4.791-0.412,5.926c-0.268,1.122-0.904,1.898-1.889,2.311
	c-0.98,0.413-2.688,0.621-5.111,0.621h-5.488V122.365z M243.852,138.532c2.188,0,3.656-0.124,4.412-0.347
	c0.75-0.231,1.246-0.798,1.475-1.717c0.213-0.905,0.324-2.657,0.324-5.249c0-2.555-0.111-4.298-0.344-5.225
	c-0.227-0.939-0.732-1.51-1.49-1.742c-0.77-0.223-2.232-0.346-4.377-0.346h-3.393v14.625H243.852z"/>
<path fill="#FFFFFF" d="M255.205,140.077v-17.712h1.645v17.712H255.205z"/>
<path fill="#FFFFFF" d="M273.654,122.365v10.043c0,2.281-0.146,3.937-0.426,5.012c-0.285,1.045-0.885,1.782-1.789,2.215
	c-0.92,0.433-2.389,0.645-4.432,0.645c-2.041,0-3.52-0.212-4.436-0.655c-0.93-0.437-1.527-1.179-1.809-2.225
	c-0.279-1.055-0.432-2.71-0.432-4.991v-10.043h1.65v10.866c0,1.668,0.102,2.856,0.301,3.565c0.193,0.705,0.635,1.211,1.309,1.5
	c0.684,0.29,1.828,0.438,3.416,0.438c1.602,0,2.732-0.147,3.408-0.438c0.682-0.289,1.104-0.795,1.303-1.5
	c0.188-0.709,0.281-1.897,0.281-3.565v-10.866H273.654z"/>
<path fill="#FFFFFF" d="M293.252,140.077v-14.776h-0.096l-6.648,14.776h-1.262l-6.639-14.776h-0.102v14.776h-1.572v-17.712h2.221
	l6.689,14.877h0.123l6.723-14.877h2.189v17.712H293.252z"/>
<path fill="#FFFFFF" d="M208.016,135.487c0.012-0.034,0.012-0.055,0.012-0.092c0.01-0.953,0-3.862-2.08-4.87
	c-0.92-0.46-2.584-0.603-4.889-0.603c0,0-3.068-0.08-3.699-0.268c-0.494-0.158-0.68-0.403-0.953-0.855
	c-0.037-0.11-0.072-0.222-0.102-0.344c-0.057-0.224-0.102-0.504-0.148-0.824l0,0c-0.049-0.411,0-0.9,0.006-1.031
	c0.049-0.279,0.096-0.512,0.143-0.722c0.223-0.89,0.711-1.448,1.451-1.681c0.738-0.225,2.145-0.344,4.229-0.344h3.309h1.619v-1.489
	h-5.344c-2.361,0-4.01,0.202-4.965,0.599c-0.967,0.399-1.576,1.139-1.832,2.245c-0.068,0.258-0.135,0.569-0.172,0.912l0,0
	c-0.008,0.013-0.008,0.013-0.008,0.013c-0.012,0.134-0.031,0.265-0.045,0.4l0,0c0,0-0.057,0.771,0,1.275
	c0.014,0.178,0.033,0.271,0.045,0.393c0,0,0,0,0.008,0.01l0,0c0.027,0.208,0.057,0.396,0.094,0.576h-0.02
	c0.281,1.055,0.654,1.72,1.555,2.234c0.92,0.533,4.811,0.467,4.811,0.467c1.811,0.01,3.633,0.102,4.213,0.519
	c1.152,0.823,1.152,2.338,1.152,3.479c0,0.076,0,0.158-0.021,0.244l0,0c-0.031,0.314-0.08,0.599-0.137,0.813
	c-0.23,0.909-0.711,1.468-1.463,1.696c-0.736,0.214-2.145,0.336-4.225,0.336h-3.299l-2.426-0.011v1.511h6.148
	c2.355,0,4-0.201,4.965-0.601c0.957-0.401,1.57-1.152,1.834-2.247c0.057-0.262,0.125-0.573,0.158-0.919c0,0,0,0,0-0.011l0,0
	c0.02-0.121,0.039-0.212,0.057-0.39c0.02-0.102,0.02-0.223,0.02-0.347l0,0C208.016,135.544,208.016,135.51,208.016,135.487z"/>
<rect x="148.73" y="154.154" fill="#B2EBF2" width="66.215" height="11.093"/>
<rect x="148.73" y="231.058" fill="#80DEEA" width="28.438" height="11.093"/>
<rect x="148.73" y="174.658" fill="#B2EBF2" width="84.975" height="50.318"/>
<rect x="148.73" y="250.567" fill="#B2EBF2" width="42.487" height="15.166"/>
<rect x="243.22" y="154.154" fill="#B2EBF2" width="18.354" height="103.996"/>
<rect x="263.169" y="154.154" fill="#B2EBF2" width="18.344" height="103.996"/>
<rect x="283.108" y="154.154" fill="#B2EBF2" width="18.354" height="103.996"/>
<path fill="#455A64" d="M487.137,258.211c1.045-1.871,2.043-3.896,2.786-5.928l-4.947-4.31l1.339-7.251l6.252-2.189
	c0.054-2.168-0.152-4.344-0.514-6.483l-6.549-1.197l-2.462-6.924l4.366-5.049c-1.13-1.916-2.304-3.733-3.689-5.412l-6.157,2.24
	l-5.58-4.791l1.205-6.554c-1.87-1.044-3.893-2.038-5.923-2.787l-4.311,4.951l-7.253-1.342l-2.191-6.251
	c-2.167-0.047-4.343,0.156-6.479,0.509l-1.204,6.553l-6.919,2.463l-5.049-4.363c-1.918,1.123-3.732,2.299-5.41,3.688l2.186,6.253
	l-4.794,5.581l-6.503-1.306c-1.043,1.868-2.041,3.894-2.786,5.928l5.047,4.367l-1.339,7.251l-6.25,2.188
	c-0.045,2.166,0.157,4.343,0.51,6.478l6.552,1.203l2.462,6.924l-4.464,4.991c1.124,1.919,2.304,3.735,3.69,5.412l6.252-2.187
	l5.582,4.793l-1.203,6.553c1.867,1.042,3.892,2.042,5.921,2.79l4.317-4.948l7.252,1.339l2.186,6.253
	c2.161,0.044,4.345-0.158,6.482-0.516l1.201-6.55l6.922-2.464l5.047,4.365c1.914-1.121,3.736-2.3,5.412-3.69l-2.188-6.251
	l4.794-5.579L487.137,258.211L487.137,258.211z"/>
<rect x="444.486" y="235.903" fill="#FFFFFF" width="2.141" height="2.14"/>
<rect x="444.486" y="240.182" fill="#FFFFFF" width="2.141" height="2.132"/>
<rect x="444.486" y="244.453" fill="#FFFFFF" width="2.141" height="2.138"/>
<rect x="448.899" y="235.903" fill="#FFFFFF" width="8.548" height="2.14"/>
<rect x="448.899" y="240.182" fill="#FFFFFF" width="8.548" height="2.132"/>
<rect x="448.899" y="244.453" fill="#FFFFFF" width="8.548" height="2.138"/>
<path fill="#FFFFFF" d="M446.727,218.8l-10.792,10.417v23.787h29.934V218.8H446.727z M446.627,221.867v7.621h-7.896L446.627,221.867
	z M463.727,250.865h-25.653v-19.242h10.692v-10.688h14.961V250.865z"/>
<polygon fill="#FFFFFF" points="465.868,223.578 465.868,225.713 468.502,225.713 468.502,255.645 442.851,255.645 442.851,253.004 
	440.715,253.004 440.715,257.78 470.642,257.78 470.642,223.578 "/>
<path fill="#455A64" d="M516.57,194.274c0.578-1.036,1.131-2.156,1.542-3.281l-2.738-2.386l0.741-4.013l3.46-1.212
	c0.03-1.2-0.084-2.404-0.284-3.589l-3.625-0.662l-1.362-3.832l2.417-2.795c-0.626-1.061-1.275-2.066-2.043-2.996l-3.407,1.24
	l-3.089-2.651l0.667-3.628c-1.035-0.577-2.154-1.128-3.278-1.542l-2.386,2.74l-4.015-0.743l-1.213-3.459
	c-1.199-0.026-2.403,0.086-3.585,0.281l-0.667,3.627l-3.829,1.363l-2.795-2.415c-1.062,0.621-2.065,1.272-2.994,2.041l1.21,3.46
	l-2.653,3.09l-3.6-0.723c-0.577,1.033-1.13,2.154-1.542,3.281l2.793,2.416l-0.74,4.014l-3.46,1.211
	c-0.024,1.199,0.087,2.404,0.282,3.586l3.627,0.666l1.362,3.832l-2.471,2.763c0.622,1.062,1.274,2.067,2.042,2.995l3.461-1.21
	l3.09,2.653l-0.666,3.626c1.033,0.577,2.153,1.131,3.277,1.545l2.389-2.739l4.014,0.741l1.21,3.461
	c1.196,0.024,2.405-0.088,3.588-0.285l0.665-3.626l3.831-1.363l2.794,2.416c1.059-0.62,2.067-1.272,2.995-2.043l-1.211-3.459
	l2.653-3.088L516.57,194.274L516.57,194.274z"/>
<polygon fill="#FFFFFF" points="504.521,182.014 501.621,182.014 505.448,184.563 501.661,184.615 500.977,187.009 497.918,187.009 
	497.271,187.009 494.691,187.009 494.009,184.601 490.222,184.537 494.05,182.014 491.147,182.014 487.604,184.676 488.893,189.636 
	497.271,189.636 497.918,189.636 506.777,189.636 508.067,184.676 "/>
<polygon fill="#FFFFFF" points="496.323,185.431 498.952,185.431 498.952,179.386 502.104,179.386 497.815,172.86 493.686,179.386 
	496.323,179.386 "/>
<path fill="#455A64" d="M485.697,121.405c-0.318-2.931-0.809-5.993-1.592-8.864l-8.976-0.896l-4.268-9.192l5.267-7.43
	c-1.667-2.473-3.627-4.748-5.734-6.859l-8.295,3.867l-8.269-5.805l0.878-9.133c-2.789-1.25-5.553-2.353-8.441-3.133l-5.119,7.41
	l-10.067-0.932l-3.864-8.307c-2.928,0.318-5.986,0.812-8.857,1.587l-0.895,8.979l-9.197,4.266l-7.432-5.264
	c-2.467,1.671-4.745,3.631-6.857,5.726l3.863,8.304l-5.799,8.265l-9.131-0.874c-1.256,2.785-2.353,5.547-3.133,8.438l7.426,5.271
	l-0.934,10.072l-8.328,3.708c0.317,2.925,0.809,5.99,1.592,8.864l9.132,0.88l4.267,9.194l-5.266,7.426
	c1.673,2.464,3.632,4.745,5.725,6.856l8.305-3.862l8.267,5.801l-1.033,9.148c2.784,1.257,5.553,2.355,8.44,3.133l5.271-7.426
	l10.072,0.931l3.863,8.307c2.923-0.317,5.986-0.808,8.859-1.584l0.902-8.979l9.193-4.27l7.427,5.271
	c2.459-1.671,4.745-3.635,6.858-5.735l-3.865-8.3l5.799-8.269l9.131,0.879c1.254-2.78,2.359-5.552,3.133-8.443l-7.425-5.268
	l0.934-10.069L485.697,121.405L485.697,121.405z"/>
<path fill="#FFFFFF" d="M456.961,138.986c-0.354-0.491-0.999,0.167-2.879-0.171c-0.28-0.422-0.605-0.821-0.959-1.187
	c0.313-1.657,1.025-2.032,0.707-2.516c-0.846-1.311-2.15-1.521-2.568-1.588c-0.596-0.096-0.59,0.822-2.151,1.912
	c-0.497-0.104-1.005-0.156-1.522-0.163c-0.956-1.386-0.719-2.155-1.278-2.276c-1.524-0.327-2.593,0.446-2.943,0.69
	c-0.491,0.354,0.175,1.003-0.163,2.883c-0.432,0.276-0.829,0.595-1.191,0.952c-1.656-0.301-2.035-1.014-2.512-0.704
	c-1.314,0.848-1.524,2.153-1.593,2.565c-0.097,0.602,0.825,0.592,1.918,2.163c-0.106,0.488-0.162,0.997-0.168,1.513
	c-1.389,0.955-2.155,0.719-2.274,1.279c-0.326,1.529,0.446,2.593,0.692,2.939c0.351,0.492,1.001-0.168,2.877,0.168
	c0.282,0.432,0.6,0.823,0.96,1.19c-0.307,1.655-1.02,2.032-0.712,2.515c0.849,1.312,2.159,1.52,2.573,1.596
	c0.596,0.096,0.591-0.834,2.155-1.921c0.493,0.103,1.002,0.158,1.517,0.163c0.955,1.394,0.717,2.161,1.277,2.281
	c1.527,0.321,2.599-0.448,2.937-0.696c0.493-0.349-0.163-1.004,0.171-2.875c0.429-0.286,0.826-0.606,1.188-0.956
	c1.661,0.295,2.037,1.012,2.52,0.703c1.312-0.845,1.521-2.157,1.583-2.565c0.105-0.594-0.821-0.589-1.905-2.158
	c0.099-0.495,0.154-1.005,0.157-1.521c1.391-0.955,2.16-0.719,2.281-1.276C457.981,140.403,457.204,139.329,456.961,138.986z
	 M446.886,140.456c1.479-0.344,2.96,0.569,3.308,2.044c0.35,1.479-0.567,2.963-2.045,3.307c-1.479,0.354-2.958-0.563-3.305-2.045
	C444.492,142.286,445.406,140.808,446.886,140.456z"/>
<path fill="#FFFFFF" d="M429.325,103.897c0.722-0.308,1.513-0.487,2.351-0.487c1.436,0,2.751,0.51,3.771,1.364
	c3.272-1.423,6.885-2.51,10.875-3.148c-4.246-2.528-9.205-3.986-14.501-3.986c-3.426,0-6.706,0.61-9.747,1.718
	C423.69,100.192,426.32,101.688,429.325,103.897z"/>
<path fill="#FFFFFF" d="M437.18,130.687c1.511-1.156,3.234-2.041,5.109-2.585c-1.76-5.414-4.684-9.916-7.895-13.555
	c-0.813,0.423-1.739,0.663-2.719,0.663c-1.264,0-2.428-0.397-3.389-1.076c-2.283,1.816-4.295,3.797-6.051,5.863
	c0.723,0.979,1.159,2.183,1.159,3.499c0,0.29-0.03,0.592-0.069,0.874C427.173,127.031,431.795,129.356,437.18,130.687z"/>
<path fill="#FFFFFF" d="M437.542,108.678c0.023,0.208,0.037,0.423,0.037,0.632c0,0.625-0.099,1.229-0.279,1.79
	c3.756,4.153,7.228,9.401,9.281,15.854l0.21,0.534c0,0,0.017,0,0.126,0c4.997,0.105,9.405,2.581,12.17,6.346
	c0.709-2.488,1.103-5.11,1.103-7.828c0-8.056-3.364-15.327-8.773-20.495C446.736,105.937,441.218,107.143,437.542,108.678z"/>
<path fill="#FFFFFF" d="M431.543,146.72c-2.436,2.204-4.604,4.876-6.075,6.933c2.041,0.471,4.167,0.721,6.354,0.721
	c1.341,0,2.662-0.095,3.96-0.276C433.75,152.109,432.25,149.573,431.543,146.72z"/>
<path fill="#FFFFFF" d="M431.17,141.33c0.273-2.566,1.174-4.955,2.552-6.993c-4.868-1.484-9.104-3.667-12.709-6.109
	c-0.98,0.728-2.2,1.172-3.522,1.172c-0.508,0-1.004-0.077-1.479-0.197c-3.892,7.289-5.463,14.772-5.591,15.413
	c2.879,3.312,6.506,5.943,10.632,7.635C422.4,150.234,426.264,144.82,431.17,141.33z"/>
<path fill="#FFFFFF" d="M412.518,126.658c-0.586-0.919-0.923-1.993-0.923-3.162c0-0.989,0.241-1.924,0.675-2.741
	c-2.75-2.892-4.699-5.554-5.875-7.327c-1.878,3.788-2.943,8.063-2.943,12.577c0,5.005,1.301,9.703,3.572,13.78
	C407.876,136.872,409.57,132.002,412.518,126.658z"/>
<path fill="#FFFFFF" d="M415.709,117.867c0.564-0.171,1.159-0.275,1.781-0.275c0.376,0,0.741,0.041,1.088,0.107
	c2.102-2.535,4.521-4.986,7.318-7.197c-0.08-0.381-0.125-0.78-0.125-1.192c0-0.76,0.151-1.482,0.413-2.155
	c-4.165-3.022-8.952-5.394-9.036-5.433c-3.188,1.932-5.966,4.478-8.176,7.47C409.293,109.738,411.539,113.534,415.709,117.867z"/>
</svg>
